<svg width="75" height="75" viewBox="0 0 75 75" fill="none" xmlns="http://www.w3.org/2000/svg">
  <g stroke="#FFFFFF" stroke-width="2" stroke-linecap="round" stroke-linejoin="round">
    <circle cx="37.5" cy="37.5" r="35.5"/>
    <path d="M20.7 60c2.9-8 8.5-12 16.8-12s13.9 4 16.8 12"/>
    <path d="M24.7 33.2c-.2-9.6 5.2-15.4 12.8-15.4s13 5.8 12.8 15.4"/>
    <path d="M27.5 31.1c3.6-1 6.1-3.1 7.6-6.2 3.3 3.9 7.4 5.9 12.4 6.2"/>
    <path d="M29.6 33.3c.4 9 3.3 13.7 7.9 13.7s7.5-4.7 7.9-13.7"/>
    <path d="M32.8 36.6h.1"/>
    <path d="M42.1 36.6h.1"/>
    <path d="M34.7 42.5c1.8 1.1 3.8 1.1 5.6 0"/>
    <path d="M26.1 27.2c-1.8.5-3.2 1.7-4 3.6"/>
    <path d="M48.9 27.2c1.8.5 3.2 1.7 4 3.6"/>
  </g>
</svg>
